<?xml version="1.0" encoding="UTF-8"?>
<svg id="Layer_2" data-name="Layer 2" xmlns="http://www.w3.org/2000/svg" viewBox="0 0 352.68 352.68">
  <g id="Layer_1-2" data-name="Layer 1">
    <g>
      <path d="M258.79,247.98c0,4.05-.23,7.99-.69,11.81,24.84-13.99,19.05-48.09,16.56-57.72-2.46-9.47,2.91-12.17,3.1-12.39,6.2-7.23,17.77,33.83,28.82,30.96,15.62-4.06,4.21-75.4,12.79-76.91.2-.03.4,0,.63.1,3.64,1.65,18.83,14.27,32.66,28.9C350.74,77,272.54,0,176.36,0S.02,78.95.02,176.34c0,14.16,1.67,27.94,4.83,41.13,16.17,10.15,57.81,48.7,109.39,48.7,74.99,0,144.56-63.44,144.56-18.2ZM288.82,114.57c7.19,0,23.68,10.94,23.68,17.5s-13.5.32-23.68,6.28c-6.06,3.54-13.03-5.32-13.03-11.89s5.83-11.89,13.03-11.89Z" style="fill: #fff;"/>
      <path d="M288.8,138.35c10.18-5.96,23.68.29,23.68-6.28s-16.49-17.5-23.68-17.5-13.03,5.32-13.03,11.89,6.97,15.44,13.03,11.89Z" style="fill: blue;"/>
      <path d="M114.51,291.41c18.51-4.73,23.75,18.59,54.72,4.13,31.69-14.79,16.68-36.85,34.07-33.04,26.42,5.79,43.66,3.55,54.78-2.71.46-3.82.69-7.76.69-11.81,0-45.24-69.57,18.2-144.56,18.2-51.58,0-93.22-38.55-109.39-48.7,2.28,9.54,5.33,18.78,9.09,27.65,18.06-8.26,49.31,59.39,100.59,46.29Z" style="fill: aqua;"/>
      <path d="M352.64,172.73c-13.83-14.63-29.02-27.25-32.66-28.9-.22-.1-.43-.13-.63-.1-8.58,1.51,2.83,72.85-12.79,76.91-11.05,2.87-22.63-38.19-28.82-30.96-.19.22-5.55,2.92-3.1,12.39,2.5,9.63,8.28,43.73-16.56,57.72-11.11,6.26-28.36,8.5-54.78,2.71-17.39-3.81-2.39,18.25-34.07,33.04-30.98,14.46-36.22-8.86-54.72-4.13-51.28,13.1-82.53-54.54-100.59-46.29,3.69,8.7,8.05,17.04,13.03,24.95,31.2,49.63,86.44,82.61,149.39,82.61,97.39,0,176.34-78.95,176.34-176.34,0-1.21-.02-2.41-.04-3.62Z" style="fill: blue;"/>
      <path d="M258.77,247.98c0,4.05-.23,7.99-.69,11.81,24.84-13.99,19.05-48.09,16.56-57.72-2.46-9.47,2.91-12.17,3.1-12.39,6.2-7.23,17.77,33.83,28.82,30.96,15.62-4.06,4.21-75.4,12.79-76.91.2-.03.4,0,.63.1,3.64,1.65,18.83,14.27,32.66,28.9C350.72,77,272.52,0,176.34,0S0,78.95,0,176.34c0,14.16,1.67,27.94,4.83,41.13,16.17,10.15,57.81,48.7,109.39,48.7,74.99,0,144.56-63.44,144.56-18.2ZM288.8,114.57c7.19,0,23.68,10.94,23.68,17.5s-13.5.32-23.68,6.28c-6.06,3.54-13.03-5.32-13.03-11.89s5.83-11.89,13.03-11.89Z" style="fill: none;"/>
      <path d="M193.91,90.38c-4.2,0-8.27.82-12.2,2.14,9.19-23.86,8.88-45.93-19.12-16.09-6.77,7.22,10.01-68.21-13.21-23.99-5.33,10.16-23.99-18.32-31.25-14.72-1.22.61.49,28.48-.48,30.76-4.34,10.27-49.38-6.82-16.53,10.83,40.18,21.59,22.48,19.56.34,24.02-8.98,1.81-1.98,6.3,9.6,11.03-18.66,4.42-26.1,15.84-19.47,42.71,11.68,47.3,80.82,80.94,102.31,70.66,21.25-10.16,40.41-41.79,40.41-70.66s-7.71-66.69-40.41-66.69Z" style="fill: #fbff78; stroke: #000; stroke-miterlimit: 10; stroke-width: 15px;"/>
      <path d="M151.56,127.02c-15.67-4.57-69.26-20.65-50.09-24.5,22.14-4.46,39.84-2.44-.34-24.02-32.84-17.65,12.19-.56,16.53-10.83.96-2.27-.75-30.15.48-30.76,7.25-3.6,25.91,24.88,31.25,14.72,23.22-44.21,6.44,31.21,13.21,23.99,49.82-53.08,11.99,58.11-11.03,51.4Z" style="fill: #00f13d;"/>
      <path d="M234.32,156.25c0,28.87-19.16,60.5-40.41,70.66-21.49,10.28-90.63-23.36-102.31-70.66-9.45-38.26,9.64-45.2,49.05-45.2,13.76,0,31.77-21.49,53.26-21.49,32.7,0,40.41,37.1,40.41,66.69Z" style="fill: #dd002d;"/>
      <ellipse cx="189.55" cy="161.66" rx="5.14" ry="13.55" style="fill: #fbff78;"/>
      <ellipse cx="122.24" cy="148.11" rx="5.14" ry="13.55" transform="translate(-43.78 51.59) rotate(-20.29)" style="fill: #fbff78;"/>
      <ellipse cx="197.74" cy="127.31" rx="5.14" ry="13.55" transform="translate(-20.77 40.34) rotate(-11.07)" style="fill: #fbff78;"/>
      <ellipse cx="161.77" cy="139.06" rx="5.14" ry="13.55" transform="translate(-47.86 99.51) rotate(-30)" style="fill: #fbff78;"/>
      <ellipse cx="151.86" cy="172" rx="5.14" ry="13.55" transform="translate(-50.23 63.35) rotate(-20.29)" style="fill: #fbff78;"/>
      <ellipse cx="182.82" cy="199.51" rx="5.14" ry="13.55" transform="translate(-57.85 75.79) rotate(-20.29)" style="fill: #fbff78;"/>
    </g>
  </g>
</svg>