<?xml version="1.0" encoding="UTF-8"?>
<svg id="chocolate" data-name="chocolate" xmlns="http://www.w3.org/2000/svg" viewBox="0 0 352.68 352.68">
  <g id="chocolate" data-name="chocolate">
    <g>
      <path d="M288.8,138.35c10.18-5.96,23.68.29,23.68-6.28s-16.49-17.5-23.68-17.5-13.03,5.32-13.03,11.89,6.97,15.44,13.03,11.89Z" style="fill: #432500;"/>
      <path d="M114.51,291.41c18.51-4.73,23.75,18.59,54.72,4.13,31.69-14.79,16.68-36.85,34.07-33.04,26.42,5.79,43.66,3.55,54.78-2.71.46-3.82.69-7.76.69-11.81,0-45.24-69.57,18.2-144.56,18.2-51.58,0-93.22-38.55-109.39-48.7,2.28,9.54,5.33,18.78,9.09,27.65,18.06-8.26,49.31,59.39,100.59,46.29Z" style="fill: #8c5200;"/>
      <path d="M352.64,172.73c-13.83-14.63-29.02-27.25-32.66-28.9-.22-.1-.43-.13-.63-.1-8.58,1.51,2.83,72.85-12.79,76.91-11.05,2.87-22.63-38.19-28.82-30.96-.19.22-5.55,2.92-3.1,12.39,2.5,9.63,8.28,43.73-16.56,57.72-11.11,6.26-28.36,8.5-54.78,2.71-17.39-3.81-2.39,18.25-34.07,33.04-30.98,14.46-36.22-8.86-54.72-4.13-51.28,13.1-82.53-54.54-100.59-46.29,3.69,8.7,8.05,17.04,13.03,24.95,31.2,49.63,86.44,82.61,149.39,82.61,97.39,0,176.34-78.95,176.34-176.34,0-1.21-.02-2.41-.04-3.62Z" style="fill: #432500;"/>
      <path d="M258.77,247.98c0,4.05-.23,7.99-.69,11.81,24.84-13.99,19.05-48.09,16.56-57.72-2.46-9.47,2.91-12.17,3.1-12.39,6.2-7.23,17.77,33.83,28.82,30.96,15.62-4.06,4.21-75.4,12.79-76.91.2-.03.4,0,.63.1,3.64,1.65,18.83,14.27,32.66,28.9C350.72,77,272.52,0,176.34,0S0,78.95,0,176.34c0,14.16,1.67,27.94,4.83,41.13,16.17,10.15,57.81,48.7,109.39,48.7,74.99,0,144.56-63.44,144.56-18.2ZM288.8,114.57c7.19,0,23.68,10.94,23.68,17.5s-13.5.32-23.68,6.28c-6.06,3.54-13.03-5.32-13.03-11.89s5.83-11.89,13.03-11.89Z" style="fill: #fff;"/>
      <g id="Chocolate_Bar" data-name="Chocolate Bar">
        <rect x="95.93" y="47.7" width="129.58" height="182.92" transform="translate(-50.71 116.92) rotate(-34.88)" style="fill: #603813; stroke: #000; stroke-miterlimit: 10; stroke-width: 5px;"/>
        <rect x="79.72" y="82.7" width="50.39" height="50.39" transform="translate(-42.86 79.39) rotate(-34.88)" style="fill: #8c5200; stroke: #000; stroke-miterlimit: 10; stroke-width: 3px;"/>
        <rect x="126.96" y="49.76" width="50.39" height="50.39" transform="translate(-15.53 100.49) rotate(-34.88)" style="fill: #8c5200; stroke: #000; stroke-miterlimit: 10; stroke-width: 3px;"/>
        <rect x="113.12" y="130.61" width="50.39" height="50.39" transform="translate(-64.25 107.1) rotate(-34.88)" style="fill: #8c5200; stroke: #000; stroke-miterlimit: 10; stroke-width: 3px;"/>
        <rect x="160.36" y="97.67" width="50.39" height="50.39" transform="translate(-36.93 128.2) rotate(-34.88)" style="fill: #8c5200; stroke: #000; stroke-miterlimit: 10; stroke-width: 3px;"/>
        <rect x="146.24" y="178.11" width="50.39" height="50.39" transform="translate(-85.47 134.58) rotate(-34.88)" style="fill: #8c5200; stroke: #000; stroke-miterlimit: 10; stroke-width: 3px;"/>
        <rect x="193.48" y="145.17" width="50.39" height="50.39" transform="translate(-58.14 155.68) rotate(-34.88)" style="fill: #8c5200; stroke: #000; stroke-miterlimit: 10; stroke-width: 3px;"/>
      </g>
    </g>
  </g>
</svg>